<svg xmlns="http://www.w3.org/2000/svg" viewBox="0 0 487.622 487.622" width="512" height="512"><circle cx="243.811" cy="243.811" r="243.811" data-original="#CF6F55" data-old_color="#CF6F55" fill="#4949e7"/><path d="M480.306 303.329l-102.79-157.346-145.688-26.551-83.061 67.379-19.051 159.247 106.101 141.419c2.661.086 5.328.145 8.01.145 114.119 0 209.914-78.413 236.479-184.293z" data-original="#C06046" data-old_color="#C06046" fill="#4949e7"/><path d="M84.54 243.811c0 87.964 71.308 159.271 159.271 159.271s159.271-71.307 159.271-159.271S331.775 84.54 243.811 84.54 84.54 155.847 84.54 243.811zm72.383 0l76.963-88.502h64.812l-76.963 88.502 76.963 88.502h-64.812l-76.963-88.502z" data-original="#FFFFFF" class="active-path" data-old_color="#FFFFFF" fill="#fff"/></svg>